<?xml version="1.0" encoding="UTF-8" standalone="no"?>
<svg
   version="1.1"
   viewBox="0 0 1181 886"
   width="1181.0pt"
   height="886.0pt"
   id="svg38"
   sodipodi:docname="RehabReps_Logo_v3.1_Final-stroke-and-fill.svg"
   inkscape:export-filename="../Music/RehabReps_Logo_v3.1_Final-stroke-and-fill.png"
   inkscape:export-xdpi="96"
   inkscape:export-ydpi="96"
   inkscape:version="1.3 (0e150ed, 2023-07-21)"
   xmlns:inkscape="http://www.inkscape.org/namespaces/inkscape"
   xmlns:sodipodi="http://sodipodi.sourceforge.net/DTD/sodipodi-0.dtd"
   xmlns:xlink="http://www.w3.org/1999/xlink"
   xmlns="http://www.w3.org/2000/svg"
   xmlns:svg="http://www.w3.org/2000/svg">
  <sodipodi:namedview
     id="namedview38"
     pagecolor="#ffffff"
     bordercolor="#000000"
     borderopacity="0.25"
     inkscape:showpageshadow="2"
     inkscape:pageopacity="0.0"
     inkscape:pagecheckerboard="0"
     inkscape:deskcolor="#d1d1d1"
     inkscape:document-units="pt"
     inkscape:zoom="0.45914479"
     inkscape:cx="864.65099"
     inkscape:cy="707.83771"
     inkscape:window-width="1896"
     inkscape:window-height="1207"
     inkscape:window-x="196"
     inkscape:window-y="74"
     inkscape:window-maximized="0"
     inkscape:current-layer="svg38" />
  <defs
     id="defs1">
    <path
       d="M 0.00 0.00 L 1181.00 0.00 L 1181.00 886.00 L 0.00 886.00 L 0.00 0.00 Z M 262.00 775.25 C 481.67 775.26 701.33 775.24 921.00 775.26 C 939.80 775.97 958.93 768.47 972.47 755.46 C 983.38 745.24 990.75 731.57 993.82 716.98 C 995.34 710.24 994.95 702.91 994.99 696.00 C 995.00 525.33 994.98 354.67 995.00 184.00 C 995.72 164.87 987.43 145.46 973.97 131.99 C 960.51 118.39 941.20 110.21 922.00 110.73 C 700.00 110.77 478.00 110.74 256.00 110.75 C 242.03 110.89 228.94 115.75 217.34 123.30 C 210.72 127.95 205.02 133.66 200.02 139.99 C 191.66 151.95 185.93 166.25 186.01 181.00 C 186.00 352.67 186.01 524.33 186.01 696.00 C 186.03 701.30 185.85 706.76 186.37 712.03 C 187.93 724.38 192.91 735.84 200.01 746.00 C 204.57 751.78 209.69 757.01 215.58 761.43 C 229.16 771.12 245.26 776.16 262.00 775.25 Z"
       id="p0" />
    <path
       d="M 256.00 110.75 C 478.00 110.74 700.00 110.77 922.00 110.73 C 941.20 110.21 960.51 118.39 973.97 131.99 C 987.43 145.46 995.72 164.87 995.00 184.00 C 994.98 354.67 995.00 525.33 994.99 696.00 C 994.95 702.91 995.34 710.24 993.82 716.98 C 990.75 731.57 983.38 745.24 972.47 755.46 C 958.93 768.47 939.80 775.97 921.00 775.26 C 701.33 775.24 481.67 775.26 262.00 775.25 C 245.26 776.16 229.16 771.12 215.58 761.43 C 209.69 757.01 204.57 751.78 200.01 746.00 C 192.91 735.84 187.93 724.38 186.37 712.03 C 185.85 706.76 186.03 701.30 186.01 696.00 C 186.01 524.33 186.00 352.67 186.01 181.00 C 185.93 166.25 191.66 151.95 200.02 139.99 C 205.02 133.66 210.72 127.95 217.34 123.30 C 228.94 115.75 242.03 110.89 256.00 110.75 Z M 261.00 111.74 C 246.06 110.96 231.16 115.37 218.76 123.65 C 199.57 136.40 186.84 158.83 186.99 182.00 C 187.00 353.33 186.99 524.67 186.99 696.00 C 187.03 701.29 186.79 706.70 187.39 711.96 C 189.25 726.28 195.59 740.04 205.33 750.71 C 217.86 764.72 236.18 773.59 254.99 774.28 C 477.00 774.25 699.00 774.27 921.00 774.27 C 936.77 774.93 952.55 769.65 965.18 760.28 C 982.70 747.29 994.17 725.95 994.01 704.00 C 994.00 532.67 994.01 361.33 994.01 190.00 C 993.96 184.06 994.28 177.76 993.31 171.93 C 991.08 158.15 984.72 145.01 975.21 134.78 C 962.72 121.10 944.57 112.36 926.01 111.72 C 704.34 111.75 482.67 111.72 261.00 111.74 Z"
       id="p1" />
    <path
       d="M 261.00 111.74 C 482.67 111.72 704.34 111.75 926.01 111.72 C 944.57 112.36 962.72 121.10 975.21 134.78 C 984.72 145.01 991.08 158.15 993.31 171.93 C 994.28 177.76 993.96 184.06 994.01 190.00 C 994.01 361.33 994.00 532.67 994.01 704.00 C 994.17 725.95 982.70 747.29 965.18 760.28 C 952.55 769.65 936.77 774.93 921.00 774.27 C 699.00 774.27 477.00 774.25 254.99 774.28 C 236.18 773.59 217.86 764.72 205.33 750.71 C 195.59 740.04 189.25 726.28 187.39 711.96 C 186.79 706.70 187.03 701.29 186.99 696.00 C 186.99 524.67 187.00 353.33 186.99 182.00 C 186.84 158.83 199.57 136.40 218.76 123.65 C 231.16 115.37 246.06 110.96 261.00 111.74 Z M 202.25 208.00 C 202.25 364.33 202.25 520.67 202.25 677.00 C 202.26 682.06 202.14 687.01 202.65 692.05 C 204.12 705.80 209.51 719.09 218.12 729.92 C 229.17 743.97 245.38 753.76 263.00 756.85 C 269.69 758.11 276.23 758.05 283.00 758.02 C 490.00 758.02 697.00 758.03 904.00 758.02 C 918.54 758.17 932.98 754.06 945.16 746.09 C 965.66 732.87 978.67 709.46 978.74 685.02 C 978.77 524.35 978.74 363.67 978.75 203.00 C 978.95 186.89 973.71 170.86 963.98 158.01 C 953.88 144.43 938.98 134.60 922.54 130.60 C 915.81 128.93 908.92 128.36 902.00 128.47 C 693.67 128.48 485.33 128.47 277.00 128.47 C 262.35 128.31 247.81 132.51 235.57 140.58 C 219.98 150.75 208.58 166.94 204.27 185.04 C 202.37 192.60 202.11 200.25 202.25 208.00 Z"
       id="p2" />
    <path
       d="M 277.00 128.47 C 485.33 128.47 693.67 128.48 902.00 128.47 C 908.92 128.36 915.81 128.93 922.54 130.60 C 938.98 134.60 953.88 144.43 963.98 158.01 C 973.71 170.86 978.95 186.89 978.75 203.00 C 978.74 363.67 978.77 524.35 978.74 685.02 C 978.67 709.46 965.66 732.87 945.16 746.09 C 932.98 754.06 918.54 758.17 904.00 758.02 C 697.00 758.03 490.00 758.02 283.00 758.02 C 276.23 758.05 269.69 758.11 263.00 756.85 C 245.38 753.76 229.17 743.97 218.12 729.92 C 209.51 719.09 204.12 705.80 202.65 692.05 C 202.14 687.01 202.26 682.06 202.25 677.00 C 202.25 520.67 202.25 364.33 202.25 208.00 C 202.11 200.25 202.37 192.60 204.27 185.04 C 208.58 166.94 219.98 150.75 235.57 140.58 C 247.81 132.51 262.35 128.31 277.00 128.47 Z M 568.85 163.43 C 568.85 177.20 568.84 190.98 568.86 204.76 C 572.53 204.77 576.20 204.77 579.88 204.76 C 579.89 194.59 579.89 184.42 579.87 174.25 C 585.93 174.15 592.01 174.09 598.06 174.23 C 602.71 174.32 604.00 180.97 600.56 183.51 C 598.95 184.75 596.92 184.52 595.00 184.61 C 591.04 184.59 587.08 184.57 583.12 184.58 C 583.09 187.84 583.09 191.10 583.13 194.37 C 586.38 194.35 589.63 194.35 592.88 194.37 C 595.60 197.84 598.33 201.28 601.06 204.74 C 605.92 204.78 610.79 204.77 615.65 204.75 C 612.26 200.73 608.85 196.74 605.39 192.78 C 607.47 191.36 609.45 190.07 610.91 187.95 C 615.08 182.09 614.55 172.79 609.20 167.79 C 605.92 164.63 601.51 163.34 597.02 163.41 C 587.63 163.42 578.24 163.41 568.85 163.43 Z M 632.83 163.23 C 632.83 201.53 632.82 239.84 632.84 278.14 C 671.56 278.18 710.29 278.12 749.00 278.17 C 778.25 278.40 806.48 294.36 821.51 319.49 C 830.93 335.11 834.97 353.93 832.61 372.03 C 830.57 388.39 823.26 404.00 812.20 416.20 C 796.06 434.27 772.20 444.78 748.00 444.84 C 709.62 444.87 671.22 444.84 632.84 444.86 C 632.82 483.43 632.83 521.99 632.83 560.56 C 659.22 560.59 685.60 560.56 711.99 560.57 C 742.83 614.29 773.70 668.00 804.50 721.74 C 850.26 721.78 896.02 721.75 941.78 721.75 C 906.88 661.42 872.15 600.98 837.23 540.66 C 870.63 524.70 899.68 500.05 920.22 469.21 C 937.81 442.97 948.90 412.48 951.98 381.01 C 953.82 361.34 952.91 341.36 948.75 322.02 C 942.04 290.29 927.08 260.61 906.06 235.97 C 884.98 211.19 857.87 191.65 827.85 179.18 C 802.01 168.48 773.97 163.01 746.00 163.22 C 708.28 163.22 670.56 163.21 632.83 163.23 Z M 238.80 164.27 C 273.75 224.57 308.47 285.01 343.39 345.33 C 310.96 360.86 282.63 384.53 262.17 414.16 C 244.52 439.63 232.98 469.21 229.19 499.99 C 226.08 523.94 227.69 548.42 233.68 571.80 C 241.66 602.94 257.69 631.90 279.44 655.54 C 302.27 680.46 331.34 699.58 363.22 710.80 C 386.20 718.91 410.62 722.99 435.00 722.78 C 472.72 722.78 510.45 722.79 548.17 722.77 C 548.17 684.47 548.18 646.16 548.16 607.85 C 509.45 607.83 470.72 607.87 432.00 607.84 C 402.77 607.70 374.40 591.88 359.31 566.79 C 351.34 553.70 347.14 538.33 347.41 523.00 C 347.58 504.78 354.27 486.90 365.83 472.85 C 381.80 453.14 406.64 441.43 431.97 441.16 C 470.70 441.13 509.44 441.17 548.17 441.14 C 548.17 402.57 548.18 364.00 548.16 325.43 C 521.69 325.44 495.22 325.40 468.75 325.45 C 437.78 271.75 407.03 217.89 376.05 164.21 C 330.30 164.30 284.55 164.19 238.80 164.27 Z M 570.82 226.92 C 570.81 240.70 570.81 254.48 570.82 268.25 C 584.06 268.27 597.30 268.27 610.54 268.26 C 610.55 264.68 610.55 261.10 610.54 257.52 C 600.99 257.49 591.45 257.56 581.90 257.48 C 581.84 250.86 581.88 244.24 581.87 237.62 C 591.42 237.54 600.96 237.63 610.50 237.58 C 610.50 234.02 610.50 230.47 610.49 226.92 C 597.27 226.91 584.05 226.91 570.82 226.92 Z M 585.52 243.16 C 585.51 246.11 585.51 249.06 585.52 252.01 C 593.72 251.98 601.94 252.12 610.14 251.93 C 610.14 249.02 610.14 246.12 610.13 243.21 C 601.93 243.09 593.72 243.19 585.52 243.16 Z M 569.84 290.42 C 569.83 304.20 569.82 317.98 569.84 331.75 C 573.52 331.76 577.20 331.76 580.87 331.75 C 580.88 317.97 580.89 304.19 580.87 290.41 C 577.19 290.41 573.51 290.41 569.84 290.42 Z M 600.84 290.42 C 600.82 295.50 600.85 300.59 600.83 305.67 C 595.42 305.68 590.01 305.66 584.60 305.68 C 584.59 309.06 584.59 312.44 584.60 315.81 C 590.00 315.84 595.41 315.81 600.82 315.83 C 600.85 321.14 600.82 326.44 600.84 331.75 C 604.52 331.76 608.20 331.76 611.87 331.76 C 611.89 317.98 611.87 304.20 611.88 290.42 C 608.20 290.40 604.52 290.40 600.84 290.42 Z M 563.56 395.24 C 567.71 395.26 571.86 395.27 576.00 395.23 C 581.01 385.80 585.99 376.35 591.04 366.93 C 593.37 371.27 595.70 375.61 597.99 379.98 C 594.67 379.99 591.34 380.00 588.01 380.02 C 586.46 382.96 584.89 385.89 583.32 388.82 C 589.64 388.95 595.97 388.72 602.28 388.92 C 604.05 390.29 604.92 393.30 606.10 395.23 C 610.19 395.27 614.28 395.26 618.37 395.24 C 611.56 382.85 604.71 370.47 597.92 358.07 C 596.90 356.40 596.02 354.60 593.94 354.14 C 591.81 353.74 589.39 353.67 587.32 354.36 C 585.76 354.95 584.86 356.68 584.05 358.03 C 577.24 370.45 570.40 382.85 563.56 395.24 Z M 569.84 417.35 C 569.83 431.15 569.83 444.95 569.84 458.75 C 579.90 458.74 589.97 458.77 600.03 458.74 C 604.79 458.74 609.40 457.17 611.86 452.85 C 614.48 447.63 613.84 439.93 608.20 436.90 C 612.79 433.69 613.18 426.93 610.73 422.31 C 608.63 418.57 604.02 417.38 600.02 417.38 C 589.96 417.31 579.90 417.37 569.84 417.35 Z M 568.85 488.29 C 568.85 502.07 568.84 515.85 568.86 529.63 C 572.53 529.63 576.20 529.63 579.88 529.63 C 579.90 520.03 579.87 510.41 579.88 500.81 C 579.74 499.94 580.02 499.31 580.71 498.94 C 586.43 498.86 592.22 498.77 597.94 498.99 C 601.88 499.24 603.54 503.62 601.86 506.87 C 600.91 508.71 599.03 509.39 597.04 509.42 C 592.40 509.53 587.75 509.41 583.11 509.45 C 583.09 512.72 583.09 515.99 583.15 519.26 C 586.40 519.24 589.66 519.24 592.92 519.27 C 595.64 522.75 598.35 526.23 601.15 529.64 C 605.98 529.62 610.81 529.64 615.65 529.62 C 612.29 525.58 608.82 521.63 605.41 517.63 C 612.32 513.80 615.04 506.60 613.02 499.01 C 611.27 492.62 605.23 488.58 598.76 488.33 C 588.80 488.22 578.82 488.32 568.85 488.29 Z M 570.82 551.79 C 570.81 565.57 570.81 579.34 570.82 593.12 C 584.06 593.13 597.30 593.14 610.54 593.12 C 610.55 589.54 610.55 585.96 610.54 582.39 C 600.99 582.36 591.43 582.42 581.87 582.35 C 581.87 575.73 581.87 569.11 581.87 562.49 C 591.41 562.41 600.95 562.48 610.49 562.45 C 610.50 558.90 610.50 555.34 610.49 551.78 C 597.27 551.78 584.04 551.78 570.82 551.79 Z M 585.51 568.03 C 585.51 570.98 585.51 573.93 585.51 576.88 C 593.72 576.86 601.93 576.96 610.14 576.82 C 610.14 573.91 610.14 571.00 610.14 568.09 C 601.94 567.94 593.72 568.06 585.51 568.03 Z M 569.34 656.62 C 573.06 656.63 576.77 656.63 580.48 656.61 C 580.50 646.37 580.45 636.13 580.51 625.89 C 586.31 625.97 592.15 625.70 597.94 625.99 C 601.49 626.46 603.33 630.54 601.71 633.63 C 600.87 635.47 599.00 636.32 597.05 636.39 C 592.55 636.55 588.04 636.38 583.54 636.45 C 583.54 639.73 583.54 643.01 583.55 646.28 C 590.84 645.79 600.39 647.87 606.63 643.71 C 613.84 639.35 615.40 629.01 610.97 622.13 C 607.87 617.47 602.52 615.23 597.03 615.28 C 587.83 615.32 578.60 615.19 569.40 615.34 C 569.25 629.08 569.38 642.87 569.34 656.62 Z M 568.86 709.82 C 568.84 713.42 568.84 717.01 568.86 720.61 C 579.25 720.62 589.64 720.60 600.04 720.62 C 603.50 720.70 606.87 719.84 609.53 717.54 C 613.97 713.88 614.80 706.81 612.19 701.88 C 610.22 698.17 606.17 695.87 602.04 695.59 C 595.21 695.26 588.30 695.81 581.49 695.35 C 578.93 694.67 579.77 692.78 579.58 690.74 C 582.72 689.43 585.69 689.95 589.00 689.88 C 597.04 689.87 605.08 689.91 613.12 689.85 C 613.13 686.33 613.13 682.81 613.12 679.29 C 602.74 679.24 592.35 679.28 581.97 679.26 C 578.48 679.23 575.07 680.01 572.41 682.38 C 566.84 687.00 566.99 696.86 572.56 701.41 C 574.63 703.09 577.26 704.16 579.93 704.31 C 586.77 704.60 593.70 704.06 600.52 704.54 C 603.40 705.10 603.11 709.98 599.97 709.78 C 589.61 709.89 579.22 709.78 568.86 709.82 Z"
       id="p3" />
    <path
       d="M 568.85 163.43 C 578.24 163.41 587.63 163.42 597.02 163.41 C 601.51 163.34 605.92 164.63 609.20 167.79 C 614.55 172.79 615.08 182.09 610.91 187.95 C 609.45 190.07 607.47 191.36 605.39 192.78 C 608.85 196.74 612.26 200.73 615.65 204.75 C 610.79 204.77 605.92 204.78 601.06 204.74 C 598.33 201.28 595.60 197.84 592.88 194.37 C 589.63 194.35 586.38 194.35 583.13 194.37 C 583.09 191.10 583.09 187.84 583.12 184.58 C 587.08 184.57 591.04 184.59 595.00 184.61 C 596.92 184.52 598.95 184.75 600.56 183.51 C 604.00 180.97 602.71 174.32 598.06 174.23 C 592.01 174.09 585.93 174.15 579.87 174.25 C 579.89 184.42 579.89 194.59 579.88 204.76 C 576.20 204.77 572.53 204.77 568.86 204.76 C 568.84 190.98 568.85 177.20 568.85 163.43 Z"
       id="p4" />
    <path
       d="M 632.83 163.23 C 670.56 163.21 708.28 163.22 746.00 163.22 C 773.97 163.01 802.01 168.48 827.85 179.18 C 857.87 191.65 884.98 211.19 906.06 235.97 C 927.08 260.61 942.04 290.29 948.75 322.02 C 952.91 341.36 953.82 361.34 951.98 381.01 C 948.90 412.48 937.81 442.97 920.22 469.21 C 899.68 500.05 870.63 524.70 837.23 540.66 C 872.15 600.98 906.88 661.42 941.78 721.75 C 896.02 721.75 850.26 721.78 804.50 721.74 C 773.70 668.00 742.83 614.29 711.99 560.57 C 685.60 560.56 659.22 560.59 632.83 560.56 C 632.83 521.99 632.82 483.43 632.84 444.86 C 671.22 444.84 709.62 444.87 748.00 444.84 C 772.20 444.78 796.06 434.27 812.20 416.20 C 823.26 404.00 830.57 388.39 832.61 372.03 C 834.97 353.93 830.93 335.11 821.51 319.49 C 806.48 294.36 778.25 278.40 749.00 278.17 C 710.29 278.12 671.56 278.18 632.84 278.14 C 632.82 239.84 632.83 201.53 632.83 163.23 Z"
       id="p5" />
    <path
       d="M 238.80 164.27 C 284.55 164.19 330.30 164.30 376.05 164.21 C 407.03 217.89 437.78 271.75 468.75 325.45 C 495.22 325.40 521.69 325.44 548.16 325.43 C 548.18 364.00 548.17 402.57 548.17 441.14 C 509.44 441.17 470.70 441.13 431.97 441.16 C 406.64 441.43 381.80 453.14 365.83 472.85 C 354.27 486.90 347.58 504.78 347.41 523.00 C 347.14 538.33 351.34 553.70 359.31 566.79 C 374.40 591.88 402.77 607.70 432.00 607.84 C 470.72 607.87 509.45 607.83 548.16 607.85 C 548.18 646.16 548.17 684.47 548.17 722.77 C 510.45 722.79 472.72 722.78 435.00 722.78 C 410.62 722.99 386.20 718.91 363.22 710.80 C 331.34 699.58 302.27 680.46 279.44 655.54 C 257.69 631.90 241.66 602.94 233.68 571.80 C 227.69 548.42 226.08 523.94 229.19 499.99 C 232.98 469.21 244.52 439.63 262.17 414.16 C 282.63 384.53 310.96 360.86 343.39 345.33 C 308.47 285.01 273.75 224.57 238.80 164.27 Z"
       id="p6" />
    <path
       d="M 570.82 226.92 C 584.05 226.91 597.27 226.91 610.49 226.92 C 610.50 230.47 610.50 234.02 610.50 237.58 C 600.96 237.63 591.42 237.54 581.87 237.62 C 581.88 244.24 581.84 250.86 581.90 257.48 C 591.45 257.56 600.99 257.49 610.54 257.52 C 610.55 261.10 610.55 264.68 610.54 268.26 C 597.30 268.27 584.06 268.27 570.82 268.25 C 570.81 254.48 570.81 240.70 570.82 226.92 Z"
       id="p7" />
    <path
       d="M 585.52 243.16 C 593.72 243.19 601.93 243.09 610.13 243.21 C 610.14 246.12 610.14 249.02 610.14 251.93 C 601.94 252.12 593.72 251.98 585.52 252.01 C 585.51 249.06 585.51 246.11 585.52 243.16 Z"
       id="p8" />
    <path
       d="M 569.84 290.42 C 573.51 290.41 577.19 290.41 580.87 290.41 C 580.89 304.19 580.88 317.97 580.87 331.75 C 577.20 331.76 573.52 331.76 569.84 331.75 C 569.82 317.98 569.83 304.20 569.84 290.42 Z"
       id="p9" />
    <path
       d="M 600.84 290.42 C 604.52 290.40 608.20 290.40 611.88 290.42 C 611.87 304.20 611.89 317.98 611.87 331.76 C 608.20 331.76 604.52 331.76 600.84 331.75 C 600.82 326.44 600.85 321.14 600.82 315.83 C 595.41 315.81 590.00 315.84 584.60 315.81 C 584.59 312.44 584.59 309.06 584.60 305.68 C 590.01 305.66 595.42 305.68 600.83 305.67 C 600.85 300.59 600.82 295.50 600.84 290.42 Z"
       id="p10" />
    <path
       d="M 587.32 354.36 C 589.39 353.67 591.81 353.74 593.94 354.14 C 596.02 354.60 596.90 356.40 597.92 358.07 C 604.71 370.47 611.56 382.85 618.37 395.24 C 614.28 395.26 610.19 395.27 606.10 395.23 C 604.92 393.30 604.05 390.29 602.28 388.92 C 595.97 388.72 589.64 388.95 583.32 388.82 C 584.89 385.89 586.46 382.96 588.01 380.02 C 591.34 380.00 594.67 379.99 597.99 379.98 C 595.70 375.61 593.37 371.27 591.04 366.93 C 585.99 376.35 581.01 385.80 576.00 395.23 C 571.86 395.27 567.71 395.26 563.56 395.24 C 570.40 382.85 577.24 370.45 584.05 358.03 C 584.86 356.68 585.76 354.95 587.32 354.36 Z"
       id="p11" />
    <path
       d="M 569.84 417.35 C 579.90 417.37 589.96 417.31 600.02 417.38 C 604.02 417.38 608.63 418.57 610.73 422.31 C 613.18 426.93 612.79 433.69 608.20 436.90 C 613.84 439.93 614.48 447.63 611.86 452.85 C 609.40 457.17 604.79 458.74 600.03 458.74 C 589.97 458.77 579.90 458.74 569.84 458.75 C 569.83 444.95 569.83 431.15 569.84 417.35 Z M 580.89 427.75 C 581.00 434.62 580.59 441.54 581.13 448.40 C 587.47 448.19 593.91 448.64 600.22 448.19 C 603.21 447.43 602.89 442.62 599.82 442.34 C 594.75 442.00 589.62 442.33 584.53 442.20 C 584.52 439.35 584.52 436.50 584.53 433.65 C 589.29 433.54 594.09 433.86 598.83 433.51 C 601.96 433.31 602.22 428.44 599.14 427.83 C 593.08 427.56 586.96 427.78 580.89 427.75 Z"
       id="p12" />
    <path
       d="M 580.89 427.75 C 586.96 427.78 593.08 427.56 599.14 427.83 C 602.22 428.44 601.96 433.31 598.83 433.51 C 594.09 433.86 589.29 433.54 584.53 433.65 C 584.52 436.50 584.52 439.35 584.53 442.20 C 589.62 442.33 594.75 442.00 599.82 442.34 C 602.89 442.62 603.21 447.43 600.22 448.19 C 593.91 448.64 587.47 448.19 581.13 448.40 C 580.59 441.54 581.00 434.62 580.89 427.75 Z"
       id="p13" />
    <path
       d="M 568.85 488.29 C 578.82 488.32 588.80 488.22 598.76 488.33 C 605.23 488.58 611.27 492.62 613.02 499.01 C 615.04 506.60 612.32 513.80 605.41 517.63 C 608.82 521.63 612.29 525.58 615.65 529.62 C 610.81 529.64 605.98 529.62 601.15 529.64 C 598.35 526.23 595.64 522.75 592.92 519.27 C 589.66 519.24 586.40 519.24 583.15 519.26 C 583.09 515.99 583.09 512.72 583.11 509.45 C 587.75 509.41 592.40 509.53 597.04 509.42 C 599.03 509.39 600.91 508.71 601.86 506.87 C 603.54 503.62 601.88 499.24 597.94 498.99 C 592.22 498.77 586.43 498.86 580.71 498.94 C 580.02 499.31 579.74 499.94 579.88 500.81 C 579.87 510.41 579.90 520.03 579.88 529.63 C 576.20 529.63 572.53 529.63 568.86 529.63 C 568.84 515.85 568.85 502.07 568.85 488.29 Z"
       id="p14" />
    <path
       d="M 570.82 551.79 C 584.04 551.78 597.27 551.78 610.49 551.78 C 610.50 555.34 610.50 558.90 610.49 562.45 C 600.95 562.48 591.41 562.41 581.87 562.49 C 581.87 569.11 581.87 575.73 581.87 582.35 C 591.43 582.42 600.99 582.36 610.54 582.39 C 610.55 585.96 610.55 589.54 610.54 593.12 C 597.30 593.14 584.06 593.13 570.82 593.12 C 570.81 579.34 570.81 565.57 570.82 551.79 Z"
       id="p15" />
    <path
       d="M 585.51 568.03 C 593.72 568.06 601.94 567.94 610.14 568.09 C 610.14 571.00 610.14 573.91 610.14 576.82 C 601.93 576.96 593.72 576.86 585.51 576.88 C 585.51 573.93 585.51 570.98 585.51 568.03 Z"
       id="p16" />
    <path
       d="M 569.40 615.34 C 578.60 615.19 587.83 615.32 597.03 615.28 C 602.52 615.23 607.87 617.47 610.97 622.13 C 615.40 629.01 613.84 639.35 606.63 643.71 C 600.39 647.87 590.84 645.79 583.55 646.28 C 583.54 643.01 583.54 639.73 583.54 636.45 C 588.04 636.38 592.55 636.55 597.05 636.39 C 599.00 636.32 600.87 635.47 601.71 633.63 C 603.33 630.54 601.49 626.46 597.94 625.99 C 592.15 625.70 586.31 625.97 580.51 625.89 C 580.45 636.13 580.50 646.37 580.48 656.61 C 576.77 656.63 573.06 656.63 569.34 656.62 C 569.38 642.87 569.25 629.08 569.40 615.34 Z"
       id="p17" />
    <path
       d="M 581.97 679.26 C 592.35 679.28 602.74 679.24 613.12 679.29 C 613.13 682.81 613.13 686.33 613.12 689.85 C 605.08 689.91 597.04 689.87 589.00 689.88 C 585.69 689.95 582.72 689.43 579.58 690.74 C 579.77 692.78 578.93 694.67 581.49 695.35 C 588.30 695.81 595.21 695.26 602.04 695.59 C 606.17 695.87 610.22 698.17 612.19 701.88 C 614.80 706.81 613.97 713.88 609.53 717.54 C 606.87 719.84 603.50 720.70 600.04 720.62 C 589.64 720.60 579.25 720.62 568.86 720.61 C 568.84 717.01 568.84 713.42 568.86 709.82 C 579.22 709.78 589.61 709.89 599.97 709.78 C 603.11 709.98 603.40 705.10 600.52 704.54 C 593.70 704.06 586.77 704.60 579.93 704.31 C 577.26 704.16 574.63 703.09 572.56 701.41 C 566.99 696.86 566.84 687.00 572.41 682.38 C 575.07 680.01 578.48 679.23 581.97 679.26 Z"
       id="p18" />
  </defs>
  <g
     id="g38"
     transform="translate(-32.669432,13.067771)">
    <use
       fill="#000000"
       xlink:href="#p1"
       id="use21" />
    <use
       fill="#ffffff"
       xlink:href="#p2"
       id="use22" />
    <use
       fill="#000000"
       xlink:href="#p3"
       id="use23" />
    <use
       fill="#ffe400"
       xlink:href="#p4"
       id="use24" />
    <use
       fill="#ffe400"
       xlink:href="#p5"
       id="use25" />
    <use
       fill="#ffffff"
       xlink:href="#p6"
       id="use26" />
    <use
       fill="#ffe400"
       xlink:href="#p7"
       id="use27" />
    <use
       fill="#ffe400"
       xlink:href="#p8"
       id="use28" />
    <use
       fill="#ffe400"
       xlink:href="#p9"
       id="use29" />
    <use
       fill="#ffe400"
       xlink:href="#p10"
       id="use30" />
    <use
       fill="#ffe400"
       xlink:href="#p11"
       id="use31" />
    <use
       fill="#ffe400"
       xlink:href="#p12"
       id="use32" />
    <use
       fill="#000000"
       xlink:href="#p13"
       id="use33" />
    <use
       fill="#ffffff"
       xlink:href="#p14"
       id="use34" />
    <use
       fill="#ffffff"
       xlink:href="#p15"
       id="use35" />
    <use
       fill="#ffffff"
       xlink:href="#p16"
       id="use36" />
    <use
       fill="#ffffff"
       xlink:href="#p17"
       id="use37" />
    <use
       fill="#ffffff"
       xlink:href="#p18"
       id="use38" />
  </g>
</svg>
